<svg t="1722306393427" class="icon" viewBox="0 0 1046 1024" version="1.1" xmlns="http://www.w3.org/2000/svg" p-id="22170" width="256" height="256"><path d="M104.448 466.500267h14.062933c3.7888 0.079644 6.826667 3.185778 6.826667 6.9632a6.8608 6.8608 0 0 1-6.826667 6.9632H104.436622v14.074311a6.9632 6.9632 0 0 1-6.9632 6.826666 6.849422 6.849422 0 0 1-6.951822-6.826666v-14.074311H76.447289a6.9632 6.9632 0 0 1-6.826667-6.9632c0-3.834311 3.003733-6.9632 6.826667-6.9632h14.074311v-14.062934a6.9632 6.9632 0 0 1 6.951822-6.826666c3.845689 0 6.9632 3.003733 6.9632 6.826666v14.062934z m919.074133-55.694223V396.743111a6.849422 6.849422 0 0 0-6.9632-6.826667 6.9632 6.9632 0 0 0-6.9632 6.826667v14.062933h-14.062933a6.849422 6.849422 0 0 0-6.826667 6.9632c0 3.731911 3.072 6.9632 6.826667 6.9632h14.062933v14.062934c0 3.822933 3.128889 6.826667 6.9632 6.826666a6.9632 6.9632 0 0 0 6.9632-6.826666V424.732444h14.074311c3.822933 0 6.826667-3.117511 6.826667-6.9632a6.9632 6.9632 0 0 0-6.826667-6.9632h-14.074311zM517.643378 640.568889H167.059911a13.869511 13.869511 0 0 1-13.880889-13.9264c0-7.691378 6.314667-13.9264 13.880889-13.9264h63.146667a55.341511 55.341511 0 0 1-7.395556-27.784533V180.963556a55.660089 55.660089 0 0 1 55.751111-55.637334h41.722311v-13.994666a55.660089 55.660089 0 0 1 55.751112-55.637334h334.108444a55.637333 55.637333 0 0 1 55.751111 55.637334v403.979377c0 10.126222-2.696533 19.615289-7.418311 27.784534h77.038933c7.702756 0 13.937778 6.178133 13.937778 13.9264 0 7.691378-6.189511 13.9264-13.9264 13.9264H668.421689v13.994666c0 10.126222-2.696533 19.603911-7.418311 27.784534h7.463822c7.657244 0 13.880889 6.178133 13.880889 13.9264 0 7.68-6.303289 13.9264-13.880889 13.9264h-73.261511a27.761778 27.761778 0 0 1-4.278045 33.905777 27.784533 27.784533 0 0 1-39.378488 0l-33.905778-33.905777z m50.904178-27.8528h44.282311a27.761778 27.761778 0 0 0 27.7504-27.921067V180.303644a26.965333 26.965333 0 0 0-26.885689-27.124622H277.538133a26.999467 26.999467 0 0 0-26.874311 27.124622V584.817778a27.898311 27.898311 0 0 0 27.716267 27.921066h211.399111l-7.168-7.168a27.795911 27.795911 0 0 1-7.236267-26.9312L462.2336 565.475556a97.507556 97.507556 0 0 1-127.317333-147.012267 97.473422 97.473422 0 0 1 147.000889 127.317333l13.164088 13.164089a27.761778 27.761778 0 0 1 26.919823 7.224889l46.546489 46.557867z m99.874133-69.632h41.904355a27.875556 27.875556 0 0 0 27.727645-27.8528V111.399822a27.761778 27.761778 0 0 0-27.727645-27.841422H375.853511a27.875556 27.875556 0 0 0-27.716267 27.841422v13.9264h264.533334a55.637333 55.637333 0 0 1 55.751111 55.637334v362.131911zM177.550222 31.323022h20.753067c5.848178 0 10.581333 4.642133 10.581333 10.456178a10.513067 10.513067 0 0 1-10.581333 10.4448h-20.753067v20.741689c0 5.848178-4.642133 10.581333-10.4448 10.581333a10.513067 10.513067 0 0 1-10.4448-10.581333V52.224h-20.753066a10.490311 10.490311 0 0 1-10.581334-10.4448c0-5.768533 4.733156-10.4448 10.581334-10.4448h20.753066V10.581333c0-5.848178 4.642133-10.581333 10.4448-10.581333 5.768533 0 10.4448 4.733156 10.4448 10.581333v20.753067zM13.9264 626.665244c0-7.691378 6.303289-13.9264 13.880889-13.9264h83.638044c7.657244 0 13.880889 6.178133 13.880889 13.9264 0 7.68-6.303289 13.9264-13.880889 13.9264h-83.626666a13.869511 13.869511 0 0 1-13.892267-13.9264z m439.159467-90.020977a69.632 69.632 0 1 0-98.486045-98.474667 69.632 69.632 0 0 0 98.486045 98.474667zM306.358044 208.896c0-7.691378 6.235022-13.915022 13.915023-13.9264h153.1904a13.9264 13.9264 0 1 1 0 27.8528H320.284444a13.880889 13.880889 0 0 1-13.9264-13.9264z m0 69.632a13.880889 13.880889 0 0 1 13.835378-13.9264h223.004445c7.623111 0 13.824 6.178133 13.824 13.915022a13.880889 13.880889 0 0 1-13.824 13.9264h-223.004445a13.846756 13.846756 0 0 1-13.835378-13.9264z m0 69.632c0-7.702756 6.212267-13.937778 13.903645-13.937778h97.530311a13.880889 13.880889 0 0 1 13.903644 13.9264c0 7.691378-6.212267 13.9264-13.903644 13.9264h-97.530311a13.869511 13.869511 0 0 1-13.903645-13.9264zM41.7792 264.578844a41.7792 41.7792 0 1 1 0-83.5584 41.7792 41.7792 0 0 1 0 83.5584z m0-20.8896a20.8896 20.8896 0 1 0 0-41.7792 20.8896 20.8896 0 0 0 0 41.7792z m863.379911-62.6688a41.7792 41.7792 0 1 1 0-83.5584 41.7792 41.7792 0 0 1 0 83.5584z m0-20.8896a20.8896 20.8896 0 1 0 0-41.7792 20.8896 20.8896 0 0 0 0 41.7792z" fill="#8a8a8a" p-id="22171"></path><path d="M261.188267 811.70204435v-12.265244c8.123733-0.796444 15.928889-1.592889 23.415466-2.230045v-9.398044c-7.327289 0.637156-15.132444 1.274311-23.415466 1.911466v-12.583822h24.849066v-9.398044h-24.849066v-10.513067h-10.513067v10.513067h-18.477511c3.982222-5.256533 7.805156-11.309511 11.309511-17.999645h43.645156v-10.194489h-38.866489c1.274311-2.8672 2.389333-5.7344 3.504355-8.6016l-11.4688-1.911466c-1.274311 3.504356-2.707911 7.008711-4.141511 10.513066h-22.141155v10.194489h17.043911a97.097956 97.097956 0 0 1-12.583823 18.318223l2.548623 9.079466h29.627733v13.220978c-10.831644 0.637156-22.459733 1.115022-34.565689 1.752178l1.4336 10.194489c11.4688-0.637156 22.619022-1.4336 33.132089-2.070756v11.4688h10.513067z m32.813511 0.477867c6.849422-9.875911 11.150222-21.504 12.9024-34.884267h20.707555v34.565689h10.990934v-34.565689h16.884622v-10.0352h-47.786667v-16.566044c17.2032-1.911467 31.5392-5.575111 43.326578-10.672356l-7.327289-8.6016c-11.150222 5.097244-26.760533 8.6016-46.512355 10.513067v25.008355c-0.318578 14.336-4.141511 26.601244-11.150223 36.955023l7.964445 8.283022zM244.9408 876.37333335v-6.212267h80.918756v6.212267h11.787377v-59.892622h-104.493511V876.37333335h11.787378z m80.918756-37.751467h-80.918756V826.19733335h80.918756v12.424533z m0 21.663289h-80.918756v-12.424533h80.918756v12.424533z m53.0432 15.610311c22.141156-9.557333 38.070044-23.096889 47.945955-40.300089 5.415822-10.194489 9.398044-22.141156 11.946667-35.999288H451.697778v57.981155c0 10.831644 5.097244 16.247467 15.610311 16.247467h25.8048c6.690133 0 11.4688-1.4336 14.495289-4.3008 3.504356-3.504356 5.893689-12.9024 7.168-28.512711l-10.831645-3.504356c-0.796444 12.424533-2.230044 19.751822-4.460089 22.300445-1.752178 2.070756-4.619378 3.185778-8.442311 3.185777H470.812444c-5.097244 0-7.645867-2.707911-7.645866-7.805155v-55.591822h49.379555v-10.990934H440.547556c1.115022-8.6016 1.752178-17.999644 2.070755-27.875555v-10.672356h57.025422v-11.150222H385.274311v11.150222h45.715911v10.672356c-0.159289 9.875911-0.796444 19.273956-2.070755 27.875555h-54.317511v10.990934h52.406044c-2.070756 10.0352-4.937956 19.114667-8.760889 27.079111-8.6016 16.247467-23.734044 29.149867-45.715911 39.025777l6.371556 10.194489z m291.976533 0.477867l6.212267-9.398044c-11.4688-7.805156-21.185422-18.796089-29.468445-33.132089 8.920178-18.796089 13.858133-41.5744 14.654578-68.175645h10.353778v-10.990933h-42.052267c1.274311-7.008711 2.548622-14.654578 3.504356-22.778311l-11.150223-1.911467c-3.185778 30.264889-9.557333 54.317511-18.955377 72.157867l7.168 8.760889a140.515556 140.515556 0 0 0 9.398044-19.592534c4.3008 15.928889 9.557333 29.946311 15.7696 42.211556a93.752889 93.752889 0 0 1-29.468444 33.132089l5.893688 9.557333a106.860089 106.860089 0 0 0 29.468445-32.017067c7.964444 13.380267 17.521778 24.211911 28.672 32.176356z m-134.280533-72.317156c13.698844-9.238756 23.256178-20.0704 28.512711-32.654222v30.264889h10.672355v-20.707555c5.7344 3.822933 12.583822 8.920178 20.548267 15.291733l5.893689-8.920178a371.143111 371.143111 0 0 0-26.441956-14.654578v-1.752177h28.990578v-10.0352h-28.990578v-30.424178h-10.672355v30.424178h-31.061334v10.0352h22.619023c-4.778667 8.760889-13.380267 16.725333-25.645512 23.893333l5.575112 9.238755z m54.158222-46.830933A106.063644 106.063644 0 0 0 603.022222 736.67697735l-8.283022-3.822933c-2.8672 6.690133-7.008711 13.380267-12.105956 20.229689l8.123734 4.141511z m-42.848711-0.159289l8.283022-3.822933a136.283022 136.283022 0 0 0-9.875911-19.911111l-9.079467 3.026489c3.822933 6.052978 7.327289 12.9024 10.672356 20.707555z m93.661866 64.989867c-6.371556-13.380267-11.4688-29.468444-15.451022-48.105245l2.070756-8.283022h23.574755c-0.637156 21.504-3.982222 40.300089-10.194489 56.388267z m-106.0864 53.839644c15.928889-4.460089 29.149867-10.353778 39.662934-17.681066 9.398044 4.141511 17.521778 8.442311 24.530489 12.583822l6.212266-8.920178a352.847644 352.847644 0 0 0-21.981866-10.831644 64.159289 64.159289 0 0 0 17.681066-27.2384v-9.398045h-33.291378c0.955733-2.8672 2.070756-5.7344 3.185778-8.760889l-10.672355-1.274311c-1.115022 3.185778-2.389333 6.530844-3.822934 10.0352H533.731556v10.0352h18.796088c-3.185778 6.371556-6.849422 12.9024-10.990933 19.911111 7.805156 2.8672 15.132444 5.893689 22.141156 8.920178-9.238756 5.256533-20.548267 9.557333-33.609956 13.061689l5.415822 9.557333z m37.910756-29.309155a335.712711 335.712711 0 0 0-18.158933-6.849422c3.185778-4.778667 6.052978-9.875911 8.6016-15.291734h27.397688c-3.822933 8.283022-9.875911 15.7696-17.840355 22.141156z m135.395555 28.353422c8.920178 0 13.380267-4.778667 13.380267-14.017422v-46.512356c4.937956-2.230044 9.875911-4.460089 14.813867-7.008711v-11.309511c-4.778667 2.548622-9.716622 4.937956-14.813867 7.168v-31.379911h15.291733v-10.990933h-15.291733v-30.1056h-11.150222v30.1056h-19.114667v10.990933h19.114667v35.999289c-7.008711 2.548622-14.336 4.778667-21.663289 6.530844l2.8672 11.150222a330.717867 330.717867 0 0 0 18.796089-6.530844v39.025778c0 4.460089-2.070756 6.849422-6.052978 6.849422-3.822933 0-7.964444-0.318578-12.105955-0.796444l2.389333 10.831644h13.539555z m64.193423 1.4336v-7.805156h43.167289v7.805156h10.672355v-52.246756h-26.760533v-19.592533h34.087822v-10.353778h-34.087822v-18.796089h29.946311v-38.7072h-83.945245v49.857423c-0.159289 33.450667-5.893689 60.848356-17.2032 81.874489l8.920178 7.964444c10.513067-20.707556 16.725333-44.600889 18.6368-71.839289h32.494934v19.592533H762.311111V876.37333335h10.672356z m45.8752-111.342933h-61.6448V747.34933335h61.6448v17.681067z m-29.946311 29.149866h-31.857778l0.159289-7.645866v-11.150223h31.698489v18.796089z m27.2384 64.193423h-43.167289v-24.052623h43.167289v24.052623z" fill="#8a8a8a" p-id="22172"></path></svg>